<svg id="ai_아이콘" data-name="ai 아이콘" xmlns="http://www.w3.org/2000/svg" width="50.086" height="50.086" viewBox="0 0 50.086 50.086">
  <defs>
    <style>
      .cls-1 {
        fill: #555;
      }
    </style>
  </defs>
  <path id="패스_14" data-name="패스 14" class="cls-1" d="M1107.419,96.543c-.524,2.261-1.833,6.208-2.814,9.278h5.727c-.687-2.227-2.226-6.917-2.88-9.278Z" transform="translate(-1085.956 -78.518)"/>
  <path id="패스_15" data-name="패스 15" class="cls-1" d="M1045.7,0h-31.873a9.133,9.133,0,0,0-9.107,9.107V40.979a9.133,9.133,0,0,0,9.107,9.107H1045.7a9.133,9.133,0,0,0,9.107-9.107V9.107A9.134,9.134,0,0,0,1045.7,0m-9.664,36.818h-3.666a.327.327,0,0,1-.327-.2l-1.9-5.635h-7.822l-1.8,5.567a.325.325,0,0,1-.36.27h-3.273c-.2,0-.262-.1-.229-.337l6.742-19.771a5.3,5.3,0,0,0,.295-1.822c0-.135.065-.236.2-.236h4.549c.164,0,.2.034.229.2l7.56,21.661c.033.2,0,.3-.2.3m6.578-.27c0,.2-.066.27-.295.27h-3.371c-.229,0-.327-.1-.327-.3V20.421c0-.169.1-.236.262-.236h3.469c.2,0,.262.034.262.236Zm-2-18.624a2.156,2.156,0,0,1-2.225-2.328,2.2,2.2,0,0,1,2.258-2.328,2.139,2.139,0,0,1,2.226,2.328,2.164,2.164,0,0,1-2.258,2.328" transform="translate(-1004.719)"/>
</svg>
