<svg id="html_아이콘" data-name="html 아이콘" xmlns="http://www.w3.org/2000/svg" width="48.111" height="67.092" viewBox="0 0 48.111 67.092">
  <defs>
    <style>
      .cls-1 {
        fill: #555;
      }
    </style>
  </defs>
  <path id="패스_33" data-name="패스 33" class="cls-1" d="M553.394,7.172V1.128h-2.975v9.019h7.3V7.172Z" transform="translate(-513.854 -1.028)"/>
  <g id="그룹_17" data-name="그룹 17">
    <path id="패스_28" data-name="패스 28" class="cls-1" d="M324.006,77.841l4.959,49.645,19.1,4.959,19.316-4.74,4.74-49.864Zm38.58,16.229H339.611l.473,6.319h21.974l-1.584,18.354-12.28,3.565-12.544-3.433-.66-9.375,5.942.132.4,4.621,6.734,1.717,6.6-1.717.792-7.79H334.989l-1.981-18.486h30.105Z" transform="translate(-324.006 -65.352)"/>
    <path id="패스_31" data-name="패스 31" class="cls-1" d="M359.078,3.532H356.01V.51h-2.975V9.529h2.975V6.507h3.068V9.529h2.975V.51h-2.975Z" transform="translate(-348.347 -0.51)"/>
    <path id="패스_32" data-name="패스 32" class="cls-1" d="M416.545,3.485h2.666V9.938h2.975V3.485h2.666V.51h-8.307Z" transform="translate(-401.601 -0.51)"/>
    <path id="패스_34" data-name="패스 34" class="cls-1" d="M484.325.512h0L482.159,3.28,480.012.533V.51h-2.975V9.729h2.975V5.365L481.524,7.3l.622.963.647-.963,1.531-1.96V9.729H487.3V.51h-2.975Z" transform="translate(-452.323 -0.51)"/>
  </g>
</svg>
