<svg id="id_아이콘" data-name="id 아이콘" xmlns="http://www.w3.org/2000/svg" width="50.086" height="50.086" viewBox="0 0 50.086 50.086">
  <defs>
    <style>
      .cls-1 {
        fill: #555;
      }
    </style>
  </defs>
  <path id="패스_10" data-name="패스 10" class="cls-1" d="M481.029,442.728c0,3.677,2.127,5.2,4.746,5.2a5.886,5.886,0,0,0,1.9-.27v-9.886a4.235,4.235,0,0,0-1.538-.236,4.864,4.864,0,0,0-5.106,5.2" transform="translate(-455.675 -414.21)"/>
  <path id="패스_11" data-name="패스 11" class="cls-1" d="M386.209,312.617H354.337a9.134,9.134,0,0,0-9.107,9.107V353.6a9.134,9.134,0,0,0,9.107,9.107h31.873a9.133,9.133,0,0,0,9.107-9.107V321.724a9.133,9.133,0,0,0-9.107-9.107M363.221,349.2c0,.236-.065.3-.262.3h-3.437c-.2,0-.262-.1-.262-.3V327.605c0-.236.1-.27.262-.27h3.437c.2,0,.262.068.262.27Zm17.869-.675a15.119,15.119,0,0,1-6.185,1.316c-4.746,0-8.379-2.834-8.379-8.5,0-4.892,3.535-8.806,9.295-8.806a11.012,11.012,0,0,1,1.407.1v-6.917c0-.169.066-.236.2-.236h3.567c.164,0,.164.068.164.2v20.379c0,.675.065,1.552.131,2.159a.262.262,0,0,1-.2.3" transform="translate(-345.23 -312.617)"/>
</svg>
