<svg id="pr_아이콘" data-name="pr 아이콘" xmlns="http://www.w3.org/2000/svg" width="50.086" height="50.086" viewBox="0 0 50.086 50.086">
  <defs>
    <style>
      .cls-1 {
        fill: #555;
      }
    </style>
  </defs>
  <path id="패스_12" data-name="패스 12" class="cls-1" d="M753.173,93.245c-1.146,0-2.062.034-2.422.067v7.828c.556.034.982.034,2.062.034,2.749,0,5.073-.945,5.073-4.015,0-2.463-1.7-3.914-4.713-3.914" transform="translate(-735.313 -75.902)"/>
  <path id="패스_13" data-name="패스 13" class="cls-1" d="M709.044.356H677.172a9.134,9.134,0,0,0-9.107,9.107V41.335a9.133,9.133,0,0,0,9.107,9.107h31.873a9.133,9.133,0,0,0,9.107-9.107V9.463A9.133,9.133,0,0,0,709.044.356M685.565,29.2H683.5v6.917c0,.169-.066.27-.262.27H679.8c-.164,0-.262-.068-.262-.236V14.527c0-.169.066-.27.229-.27,1.244-.034,3.665-.1,6.055-.1,6.349,0,8.706,3.644,8.706,7.355,0,5.365-4.026,7.693-8.968,7.693m21.109-5.972c0,.169-.065.236-.294.236-2.324-.067-4.255.776-5.008,1.788V36.121c0,.2-.1.27-.294.27h-3.4c-.229,0-.294-.1-.294-.27V24.481c0-1.451-.033-3.408-.164-4.521,0-.169.033-.2.2-.2h3.076a.326.326,0,0,1,.36.27,7.843,7.843,0,0,1,.327,2.024,6.749,6.749,0,0,1,5.237-2.632c.2,0,.262.034.262.236Z" transform="translate(-668.065 -0.356)"/>
</svg>
