<svg id="ps_아이콘" data-name="ps 아이콘" xmlns="http://www.w3.org/2000/svg" width="50.086" height="50.086" viewBox="0 0 50.086 50.086">
  <defs>
    <style>
      .cls-1 {
        fill: #555;
      }
    </style>
  </defs>
  <path id="패스_6" data-name="패스 6" class="cls-1" d="M418.052,93.487c-1.145,0-2.062.034-2.422.067v7.828c.556.034.982.034,2.062.034,2.749,0,5.073-.945,5.073-4.015,0-2.463-1.7-3.914-4.713-3.914" transform="translate(-400.896 -76.187)"/>
  <path id="패스_7" data-name="패스 7" class="cls-1" d="M377.691.828H345.819a9.133,9.133,0,0,0-9.107,9.107V41.807a9.133,9.133,0,0,0,9.107,9.107h31.873a9.133,9.133,0,0,0,9.107-9.107V9.935A9.133,9.133,0,0,0,377.691.828m-24.183,28.8h-2.062V36.55c0,.169-.066.27-.262.27h-3.437c-.164,0-.262-.068-.262-.236V14.956c0-.169.066-.27.229-.27,1.244-.034,3.666-.1,6.055-.1,6.349,0,8.706,3.644,8.706,7.355,0,5.365-4.026,7.693-8.968,7.693m16.069,7.524a9.812,9.812,0,0,1-4.615-.945.366.366,0,0,1-.229-.371V32.636a.171.171,0,0,1,.262-.169,8.708,8.708,0,0,0,4.68,1.35c1.7,0,2.52-.607,2.52-1.484,0-.844-.622-1.383-2.651-2.227-3.567-1.35-4.844-2.868-4.844-5.3,0-2.564,2.029-4.96,6.12-4.96a9.82,9.82,0,0,1,4.124.675.415.415,0,0,1,.2.4V23.9c0,.169-.1.27-.295.2a9.079,9.079,0,0,0-4.091-.979c-1.735,0-2.324.742-2.324,1.451,0,.742.491,1.248,2.585,2.092,3.731,1.417,5.007,2.935,5.007,5.331,0,3.172-2.422,5.162-6.447,5.162" transform="translate(-336.712 -0.828)"/>
</svg>
