<svg id="xd_아이콘" data-name="xd 아이콘" xmlns="http://www.w3.org/2000/svg" width="50.086" height="50.086" viewBox="0 0 50.086 50.086">
  <defs>
    <style>
      .cls-1 {
        fill: #555;
      }
    </style>
  </defs>
  <path id="패스_8" data-name="패스 8" class="cls-1" d="M167.342,442.728c0,3.677,2.127,5.2,4.746,5.2a5.884,5.884,0,0,0,1.9-.27v-9.886a4.234,4.234,0,0,0-1.538-.236,4.864,4.864,0,0,0-5.106,5.2" transform="translate(-136.098 -414.21)"/>
  <path id="패스_9" data-name="패스 9" class="cls-1" d="M40.979,312.616H9.107A9.134,9.134,0,0,0,0,321.723V353.6A9.133,9.133,0,0,0,9.107,362.7H40.979a9.134,9.134,0,0,0,9.107-9.107V321.723a9.134,9.134,0,0,0-9.107-9.107M26.433,349.5H22.407a.455.455,0,0,1-.491-.27c-1.571-2.767-3.175-5.567-4.778-8.469h-.033c-1.473,2.834-3.011,5.7-4.549,8.469a.381.381,0,0,1-.393.27H8.334c-.229,0-.229-.2-.131-.337l6.415-10.8L8.334,327.638a.186.186,0,0,1,.164-.3H12.49a.354.354,0,0,1,.393.236c1.44,2.8,3.076,5.567,4.549,8.368h.033c1.44-2.8,2.978-5.567,4.484-8.334a.369.369,0,0,1,.393-.27h3.665c.2,0,.229.135.131.337L19.952,338.1l6.611,11.067c.131.169.033.3-.131.337m15.317-.979a15.12,15.12,0,0,1-6.186,1.316c-4.746,0-8.379-2.834-8.379-8.5,0-4.892,3.535-8.806,9.295-8.806a11.006,11.006,0,0,1,1.407.1v-6.917c0-.169.066-.236.2-.236h3.567c.164,0,.164.068.164.2V346.06c0,.675.065,1.552.131,2.159a.263.263,0,0,1-.2.3" transform="translate(0 -312.616)"/>
</svg>
